<?xml version="1.0" encoding="utf-8"?>
<!-- Generator: Adobe Illustrator 19.2.1, SVG Export Plug-In . SVG Version: 6.00 Build 0)  -->
<svg version="1.1" id="layer" xmlns="http://www.w3.org/2000/svg" xmlns:xlink="http://www.w3.org/1999/xlink" x="0px" y="0px"
	 viewBox="0 0 652 652" style="enable-background:new 0 0 652 652;" xml:space="preserve">
<style type="text/css">
	.st0{fill:#030000;}
	.st1{fill:#E0002A;}
</style>
<path class="st0" d="M47.5,299l5.1,33.2H42.4L47.5,299z M37,284.4l-16.6,76.2h17.9l2.2-14.6h14l2.2,14.6h17.8l-16.4-76.2H37z"/>
<polygon class="st0" points="81.6,284.4 81.6,360.5 120.7,360.5 120.7,345.1 99.4,345.1 99.4,284.4 "/>
<polygon class="st0" points="128.6,284.4 128.6,360.5 167.8,360.5 167.8,345.1 146.5,345.1 146.5,284.4 "/>
<polygon class="st0" points="175.7,284.4 175.7,360.5 217.2,360.5 217.2,345 193.5,345 193.5,328.4 215.3,328.4 215.3,313.1 
	193.5,313.1 193.5,299.2 217.2,299.2 217.2,284.4 "/>
<g>
	<path class="st0" d="M228.2,284.4h18.5l14.8,47c-1.1-15.1-1.7-26.7-1.7-35v-11.9h15.9v76.2h-18.6l-14.9-48.4
		c1.3,12.3,2,24.1,2,35.5v12.9h-16V284.4z"/>
	<path class="st1" d="M326,356.7c-5.3,3.8-10.8,5.7-17.1,5.7c-13.5,0-22.4-9.3-22.4-22.6c0-9.9,4.3-17.1,13.7-24.4
		c-3.7-5.6-5.6-10.7-5.6-15.6c0-9.8,7.8-17.3,19.2-17.3c11.3,0,18.6,6.5,18.6,16.3c0,7.9-3.9,14-12.5,19.2l7.5,12.2
		c1.4-3.3,2.2-6.7,2.4-10h13.3c-0.3,8.2-2.7,16.2-7.1,23.7l10.5,17h-17.8L326,356.7z M307.4,327.4c-3.4,3.3-5.2,6.8-5.2,10.7
		c0,6,3.7,10.1,9.1,10.1c2.1,0,4.5-1.1,7.2-3.2L307.4,327.4z M318,298.5c0-2.8-1.9-4.7-4.9-4.7c-2.7,0-4.6,1.8-4.6,4.6
		c0,3,1.3,5.6,3.7,8.7C316.1,304.6,318,301.8,318,298.5"/>
	<polygon class="st0" points="355.2,284.4 373,284.4 373,313.1 387.3,313.1 387.3,284.4 404.7,284.4 404.7,360.5 387.3,360.5 
		387.3,328.9 373,328.9 373,360.5 355.2,360.5 	"/>
	<polygon class="st0" points="417.1,284.4 458.5,284.4 458.5,299.2 434.8,299.2 434.8,313.1 456.7,313.1 456.7,328.4 434.8,328.4 
		434.8,345 458.5,345 458.5,360.5 417.1,360.5 	"/>
	<path class="st0" d="M480.7,284.4h21.2l16.4,76.2h-17.8l-2.2-14.6h-14l-2.2,14.6H464L480.7,284.4z M496.3,332.2l-5.1-33.2
		l-5.2,33.2H496.3z"/>
	<polygon class="st0" points="530.8,299.2 516.5,299.2 516.5,284.4 563.6,284.4 563.6,299.2 548.6,299.2 548.6,360.5 530.8,360.5 	
		"/>
	<polygon class="st0" points="570.9,284.4 588.7,284.4 588.7,313.1 603,313.1 603,284.4 620.4,284.4 620.4,360.5 603,360.5 
		603,328.9 588.7,328.9 588.7,360.5 570.9,360.5 	"/>
</g>
</svg>
