<svg id="Layer_1" data-name="Layer 1" xmlns="http://www.w3.org/2000/svg" width="426.28" height="345" viewBox="0 0 426.28 345"><title>Behringer logo - Brandlogos.net</title><path d="M351.82,487.91a23.6,23.6,0,0,0-23.62,23.58v18.81a4.44,4.44,0,0,0,4.2,4.4h4.74V511.51a14.68,14.68,0,0,1,28.33-5.38h9.34a23.56,23.56,0,0,0-23-18.22" transform="translate(-170.86 -211.5)" style="fill:#231f20"/><path d="M268.54,514.77h1.33a21.64,21.64,0,0,0,.26-3.26,23.62,23.62,0,1,0-1,6.91h-9.62a14.67,14.67,0,0,1-27.31-3.64h36.35m-22-18a14.71,14.71,0,0,1,13.66,9.34H232.76a14.7,14.7,0,0,1,13.66-9.34" transform="translate(-170.86 -211.5)" style="fill:#231f20"/><path d="M544,514.77h1.36a24.07,24.07,0,0,0,.24-3.26,23.66,23.66,0,1,0-1,6.91h-9.62a14.68,14.68,0,0,1-27.31-3.64H544m-22-18a14.7,14.7,0,0,1,13.66,9.34H508.26a14.69,14.69,0,0,1,13.66-9.34" transform="translate(-170.86 -211.5)" style="fill:#231f20"/><path d="M493.39,511.51A23.6,23.6,0,1,0,484.52,530v2.93a14.7,14.7,0,0,1-28.36,5.41h-9.34a23.58,23.58,0,0,0,46.54-5.41V511.51m-23.6,14.71a14.7,14.7,0,1,1,14.68-14.72h0a14.7,14.7,0,0,1-14.68,14.71" transform="translate(-170.86 -211.5)" style="fill:#231f20"/><path d="M388,477.81a4.47,4.47,0,1,1-4.47-4.47h0a4.47,4.47,0,0,1,4.46,4.47" transform="translate(-170.86 -211.5)" style="fill:#231f20"/><path d="M441.4,511.51a23.61,23.61,0,0,0-47.22,0V530.2a4.48,4.48,0,0,0,4.46,4.47h4.41l.05-23.18a14.69,14.69,0,0,1,29.38,0v18.69a4.49,4.49,0,0,0,4.49,4.47h4.46V511.47" transform="translate(-170.86 -211.5)" style="fill:#231f20"/><path d="M574.13,487.91a23.61,23.61,0,0,0-23.62,23.6V530.4a4.45,4.45,0,0,0,4.43,4.31h4.49V511.53a14.69,14.69,0,0,1,28.36-5.38h9.34a23.61,23.61,0,0,0-23-18.22" transform="translate(-170.86 -211.5)" style="fill:#231f20"/><path d="M194.44,487.91a23.53,23.53,0,0,0-15,5.37V475.13h0a4.47,4.47,0,0,0-4.47-4.46h-4.1v40.5a3.07,3.07,0,0,0,0,.36,23.62,23.62,0,1,0,23.63-23.6h0m0,38.32a14.7,14.7,0,1,1,14.69-14.71,14.7,14.7,0,0,1-14.69,14.71h0" transform="translate(-170.86 -211.5)" style="fill:#231f20"/><path d="M379,488.22v42a4.5,4.5,0,0,0,4.49,4.45H388v-46.5H379" transform="translate(-170.86 -211.5)" style="fill:#231f20"/><path d="M298.64,487.91A23.47,23.47,0,0,0,284,493V475.1a4.48,4.48,0,0,0-4.49-4.43H275v59.66a4.47,4.47,0,0,0,4.48,4.46H284v-24a14.68,14.68,0,0,1,29.34.72v18.76a4.46,4.46,0,0,0,4.21,4.42h4.69V511.52a23.6,23.6,0,0,0-23.59-23.6h0" transform="translate(-170.86 -211.5)" style="fill:#231f20"/><path d="M365.78,223.68,231,407.54,229.9,409l-.82,1.64-.83,1.63-.67,1.76-.42,1.63-.39,1.78-.29,1.91v3.68l.29,1.78.26,1.77.56,1.76.67,1.64.72,1.78,1,1.49,1,1.5,1.09,1.5,1.22,1.37,1.37,1.22,1.51,1.1,1.49,1.09,1.64.82,1.63.81,1.64.55,1.76.55,1.77.4,1.92.13,1.76.14H518.33l1.9-.14,1.78-.13,1.76-.4,1.78-.55,1.64-.55,1.77-.81,1.5-.82L532,440l1.5-1.1,1.37-1.22,1.23-1.37,1.08-1.36,1-1.65,1-1.49.68-1.65.72-1.78.55-1.76.26-1.77.29-1.78v-3.68l-.29-1.76-.26-1.78-.55-1.78-.72-1.76-.68-1.63-1-1.5-1-1.5-134-183.86-1.1-1.5L400.83,221l-1.35-1.22-1.36-1.09-1.5-1-1.64-1-1.65-.68-1.64-.68-1.77-.55-1.77-.26-1.91-.27h-3.54l-1.77.27-1.77.26-1.77.55-1.77.54-1.63.81-1.64.83-1.5,1.09-1.37,1.09-1.37,1.22-1.23,1.37Z" transform="translate(-170.86 -211.5)" style="fill:#f9b82d"/><path d="M543.69,415.45l-.72-2.38-1.38-3.46L539.35,406,404.29,220.66l-1.44-1.59-1.69-1.53-1.37-1.09-3.47-2.16-3.59-1.52-2-.63-4.13-.64h-3.93l-4,.57-4,1.17-3.7,1.81-3.49,2.6-1.36,1.23-1.55,1.71L363.53,222,228.73,405.91l-1.09,1.5-1.88,3.67-.79,2-1,4-.28,1.91v4.08l.58,4,.64,2.19,1.44,3.59,2.25,3.63,1.09,1.51,1.44,1.57,1.58,1.44,3.21,2.36,3.68,1.88,3.81,1.26,2,.46,4.07.33h269l3.76-.27,2.2-.47,3.67-1.17,2-.91,1.69-.93,3.28-2.38,1.59-1.38,1.57-1.72,1.08-1.37,2.08-3.38,1.67-4.06.55-1.78.62-3.95,0-4.12Zm-5,7.4-.48,3.15-.43,1.37-1.24,3.13-1.73,2.88-2,2.32-1.15,1-2.73,2-1.27.72-1.53.72-3.11,1-1.44.33-3.37.25H249.77l-3.38-.25-1.44-.33-3.06-1L239,438.74l-2.7-2-1.14-1-1-1.15-.91-1.24-1.76-2.76-1.24-3.08-.45-1.44-.48-3.15v-3.26l.22-1.51.76-3.15.55-1.5,1.49-3L368,225.49l1-1.22L370.1,223l1.13-1,2.58-2,2.88-1.44,3.13-1,3.13-.47h3.13l3.25.47,1.44.45,3,1.23,2.75,1.69,2.36,2,1,1.15L534.76,409.24l1.78,2.8,1.18,2.93.49,1.57.48,3.13Z" transform="translate(-170.86 -211.5)" style="fill:#231f20"/><path d="M381,293.76a116.52,116.52,0,0,0-24.44,12.5h-.05l-.14.09,0,0c-.55.42-.79,1-.55,1.44s.91.43,1.55.11h0a79.9,79.9,0,0,1,20.22-9.52,29.89,29.89,0,0,1,23.09,1.06c18,10.37,8.81,41.45-5.52,62.09a127.41,127.41,0,0,1-33.55,33.31,58.22,58.22,0,0,1-32,11.28c-24,.09-21.42-26.69-21.42-26.69h0a.24.24,0,0,0,0-.09c.07-.78-.17-1.44-.56-1.49s-.72.56-.83,1.34a.63.63,0,0,1,0,.11h0a30.51,30.51,0,0,0,10,28.66,26.11,26.11,0,0,0,15.28,5.31,60.1,60.1,0,0,0,18.28-2.16,87.64,87.64,0,0,0,24.78-12.05,148.14,148.14,0,0,0,29-25.77c11.36-13.2,22.47-32.85,23.59-49,2.83-40.68-33.13-35.18-46.72-30.65" transform="translate(-170.86 -211.5)" style="fill:#231f20"/><path d="M317.55,368.43a44.63,44.63,0,0,0,9.34-2.67A85.67,85.67,0,0,0,352.17,349a34,34,0,0,0,12.46-22.32c-.24-9.34-10.54-9.39-14.61-9a3.16,3.16,0,0,0-2.34,1.24c-4.67,6.82-31.11,45.33-32.2,46.86-1.31,1.83-.57,3.11,2,2.67" transform="translate(-170.86 -211.5)" style="fill:#231f20"/></svg>