<?xml version="1.0" encoding="UTF-8"?>
<svg xmlns="http://www.w3.org/2000/svg" id="Layer_2" data-name="Layer 2" viewBox="0 0 599.9 137.8">
  <defs>
    <style>
      .cls-1 {
        fill: #e50012;
      }

      .cls-2 {
        fill: #231815;
      }
    </style>
  </defs>
  <g id="layer">
    <g>
      <path class="cls-2" d="M551.4,104.8c-5.5,9-11.1,14.6-22.2,14.6-13.2,0-20.8-11-21.9-22.1h61.5v-4.8c0-27.9-15.4-45.3-40.1-45.3s-41.7,17.6-41.7,45.8c0,26.4,17.3,44.8,42,44.8,16.8,0,31.6-8.7,39.5-23.3l1.1-2-17.1-9.7-1.1,2Zm-22.7-39.4c9.8,0,16.9,5.7,19.4,15.5h-39.5c2.6-9.4,10.4-15.5,20.1-15.5M180.5,.3h-29.3V135.1h28.7c46.8,0,75.8-26.1,75.8-68.1C255.8,26.5,226.2,.3,180.5,.3m-5.1,115.3h-3.4V19.8h3.4c27.1,0,59.4,8.3,59.4,47.9s-32.2,47.9-59.4,47.9m150.4-56.6c-6.9-7.7-15.9-11.8-26-11.8-26.3,0-40.5,23-40.5,44.6,0,22.8,14.1,46,41,46,9.6,0,18.6-4.1,25.4-11.4v8.7h20.2V49.6h-20.2v9.4h.1Zm-23,60.4c-15.2,0-23.2-13.6-23.2-27s8-26.7,23.2-26.7c16.5,0,23.9,13.4,23.9,26.7s-7.4,27-23.9,27M489.4,49.6h-15.2V18.7h-20.2v30.9h-8.5v19.2h8.5v66.3h20.2V68.8h15.2v-19.2Zm-85.3-2.4c-8.8,0-16.8,3.4-22.3,9.1v-6.7h-20.2v85.4h20.2v-39.4c0-17.5,1.3-29.9,17.7-29.9,13.2,0,15.4,6.4,15.4,20.8v48.6h20.2v-50.5c0-25.1-10.2-37.4-31-37.4m156.1-10.8h5.9v16.5h3.1v-16.5h6v-2.5h-15v2.5Zm35-2.5l-5.6,14.4-5.7-14.4h-4.8v19h3.1v-15.9h.1l6.2,15.9h2l6.2-15.9h.1v15.9h3.1v-19h-4.7ZM31.9,107.1v5.9h63.9v-16.9H48.9c4.6-24.8,25.9-44.3,52.7-48.3v48.3h0v16.9h16V31.9h-5.9c-44-.1-79.8,33.7-79.8,75.2m-31.9,0v5.9H15.9v-5.9C15.9,56.8,58.8,15.9,111.6,15.9h5.9V0h-5.9C50.1,0,0,48,0,107.1"></path>
      <rect class="cls-1" x="31.4" y="123.3" width="85.9" height="12.1"></rect>
      <rect class="cls-1" y="123.6" width="16.8" height="11.7"></rect>
    </g>
  </g>
</svg>
